<?xml version="1.0" standalone="no"?>
<!DOCTYPE svg PUBLIC "-//W3C//DTD SVG 20010904//EN"
 "http://www.w3.org/TR/2001/REC-SVG-20010904/DTD/svg10.dtd">
<svg version="1.0" xmlns="http://www.w3.org/2000/svg"
 width="123.000000pt" height="123.000000pt" viewBox="0 0 123.000000 123.000000"
 preserveAspectRatio="xMidYMid meet">
<metadata>
Created by potrace 1.14, written by Peter Selinger 2001-2017
</metadata>
<g transform="translate(0.000000,123.000000) scale(0.100000,-0.100000)"
fill="#000000" stroke="none">
<path d="M530 1218 c-144 -42 -215 -222 -135 -347 14 -24 25 -44 23 -45 -2 -1
-15 -7 -30 -14 -21 -9 -28 -19 -28 -40 0 -34 27 -52 82 -55 35 -2 36 -3 32
-37 -13 -103 -63 -219 -105 -244 -16 -9 -41 -40 -55 -67 -13 -27 -43 -67 -65
-88 -46 -43 -61 -100 -38 -142 15 -25 16 -30 18 -66 2 -34 45 -50 156 -58 174
-13 464 -7 556 10 36 7 60 36 58 70 -2 16 2 39 8 50 10 19 17 55 14 83 -1 7
-23 33 -50 58 -27 25 -59 65 -70 90 -12 25 -33 50 -50 58 -36 19 -65 68 -97
162 -35 106 -33 120 16 127 49 6 70 22 70 51 0 28 -18 46 -47 46 l-23 0 24 38
c77 122 38 280 -84 342 -45 23 -133 32 -180 18z"/>
</g>
</svg>
